<svg width="90" height="101" viewBox="0 0 90 101" fill="none" xmlns="http://www.w3.org/2000/svg">
    <path d="M71.0808 80.9699L61.0703 50.1567L87.2752 31.1184H54.8828L44.8714 0.30583L44.8682 0.297468H77.2654L87.2794 31.1149L87.2801 31.1142L87.2884 31.1097C93.1037 48.9877 87.1142 69.3222 71.0808 80.9696V80.9699ZM18.6592 80.9699L18.6512 80.9759L44.863 100.019L71.0808 80.9706L44.8714 61.9267L18.6595 80.9699H18.6592ZM2.45882 31.1104C-3.66312 49.9563 3.44315 69.9257 18.6543 80.9738L18.6567 80.964L28.6689 50.1525L2.46963 31.1177H34.8543L44.8661 0.305482L44.8682 0.297119H12.4693L2.45848 31.1104H2.45882Z"
          fill="#EB5424"/>
</svg>
