<svg width="91" height="101" viewBox="0 0 91 101" fill="none" xmlns="http://www.w3.org/2000/svg">
    <path d="M90.5469 88.0806C90.5839 94.9463 85.0469 100.537 78.1853 100.574C77.6752 100.578 77.161 100.549 76.655 100.487C70.287 99.5455 65.6221 94.0043 65.7784 87.5704V13.5977C65.6262 7.15568 70.3035 1.61452 76.6756 0.680704C83.4919 -0.117355 89.6665 4.7615 90.4646 11.5779C90.5222 12.0798 90.551 12.5817 90.5469 13.0876V88.0806Z"
          fill="#F9AB00"/>
    <path d="M12.6006 75.8215C19.4417 75.8215 24.987 81.3668 24.987 88.2079C24.987 95.049 19.4417 100.594 12.6006 100.594C5.75951 100.594 0.214233 95.049 0.214233 88.2079C0.214233 81.3668 5.75951 75.8215 12.6006 75.8215ZM45.1894 38.2839C38.3154 38.6624 32.984 44.4257 33.1444 51.3079V84.5754C33.1444 93.605 37.1183 99.0845 42.9392 100.253C49.6568 101.614 56.2017 97.2745 57.5634 90.5568C57.732 89.734 57.8143 88.899 57.8102 88.0598V50.732C57.8225 43.8662 52.269 38.2921 45.4033 38.2798C45.3333 38.2798 45.2593 38.2798 45.1894 38.2839Z"
          fill="#E37400"/>
</svg>
