<svg width="89" height="101" viewBox="0 0 89 101" fill="none" xmlns="http://www.w3.org/2000/svg">
    <path d="M85.3681 77.7279L46.7209 100.058C45.906 100.532 44.9799 100.782 44.037 100.782C43.094 100.782 42.1679 100.532 41.3531 100.058L2.7058 77.7279C1.04182 76.7617 0.0219116 74.9907 0.0219116 73.1118V28.4524C0.0219116 26.5202 1.04182 24.8026 2.7058 23.8363L41.3531 1.50656C42.1679 1.03208 43.094 0.782104 44.037 0.782104C44.9799 0.782104 45.906 1.03208 46.7209 1.50656L85.3681 23.8363C87.0325 24.8026 88.052 26.5738 88.052 28.4524V73.1118C87.9984 74.9904 86.9785 76.7617 85.3681 77.7279Z"
          fill="#8D6748"/>
    <path d="M43.9834 7.57245C43.1784 7.57245 42.3731 7.78702 41.6753 8.21651L8.2882 27.4865C6.8388 28.2918 5.98016 29.8482 5.98016 31.4582V69.9985C5.98016 71.6625 6.8388 73.1656 8.2882 73.9709L41.6753 93.2409C42.3731 93.6704 43.178 93.885 43.9834 93.885C44.788 93.885 45.5937 93.6704 46.2914 93.2409L79.6786 73.9705C81.128 73.1656 81.9866 71.6089 81.9866 69.9989V31.4582C81.9866 29.7946 81.128 28.2918 79.6786 27.4865L46.2914 8.21617C45.5934 7.78702 44.7884 7.57245 43.9834 7.57245ZM43.9834 9.18278C44.5198 9.18278 45.0033 9.34371 45.4861 9.61227L78.8732 28.8823C79.7859 29.4187 80.3759 30.439 80.3759 31.5125V70.0525C80.3759 71.1261 79.7859 72.1456 78.8732 72.6824L45.4864 91.9524C45.0033 92.2206 44.5202 92.3819 43.9834 92.3819C43.4524 92.3797 42.9322 92.231 42.4803 91.9521L9.0932 72.6828C8.18057 72.146 7.59015 71.1264 7.59015 70.0529V31.5125C7.59015 30.439 8.18057 29.4191 9.09285 28.8819L42.48 9.61227C42.9631 9.34371 43.4999 9.18244 43.9827 9.18244L43.9834 9.18278ZM40.8968 42.7845H45.4056C45.5669 42.7845 45.6742 42.7305 45.7815 42.6232C48.4654 39.6175 48.7339 33.3371 48.7339 31.4585C48.7339 31.1903 48.519 30.9218 48.1971 30.9218H38.1057C37.8374 30.9218 37.5689 31.1363 37.5689 31.4585C37.5689 33.2834 37.8374 39.5638 40.5213 42.6232C40.6286 42.7305 40.7359 42.7845 40.8968 42.7845ZM39.6623 32.5857H46.7477C47.0159 32.5857 47.2845 32.8003 47.2845 33.1225C47.2845 34.6255 47.016 38.8658 45.191 41.0665C45.0301 41.1742 44.9228 41.2278 44.7616 41.2278H41.5949C41.4336 41.2278 41.3263 41.1742 41.219 41.0665C39.3938 38.9198 39.1792 34.6255 39.1256 33.1225C39.1256 32.8543 39.3401 32.5857 39.6623 32.5857ZM44.1711 29.8485C44.1711 29.8485 46.1037 28.721 44.9225 26.6815C44.2248 25.6076 43.9029 24.6953 44.1711 24.3195C43.4734 25.1785 42.2926 26.0908 43.5807 28.0233C44.0105 28.5064 44.2248 29.526 44.1711 29.8482V29.8485ZM42.024 30.0091C42.024 30.0091 43.3122 29.2578 42.5072 27.862C42.024 27.1643 41.8095 26.5202 42.024 26.3053C41.5409 26.8957 40.7895 27.4862 41.6482 28.8283C41.9167 29.0965 42.024 29.7946 42.024 30.0091ZM41.8631 40.5837H44.547C44.6543 40.5837 44.7616 40.5301 44.8688 40.4228C45.7815 39.3493 46.211 37.6853 46.4255 36.2359C46.4255 36.2359 46.3719 36.719 45.0838 37.2022C43.3128 37.8462 40.1991 37.4167 40.1991 37.4167C40.4673 38.5439 40.8972 39.6175 41.5409 40.4228C41.5945 40.5301 41.7558 40.5837 41.8631 40.5837ZM21.6805 55.6668V44.9316H19.6946L16.4203 49.9772L13.146 44.9316H11.1598V55.7205H13.0384V48.0446L16.3663 53.0366H16.42L19.8019 47.991V55.6668H21.6805ZM33.7045 45.1462C33.0064 44.878 32.2551 44.7167 31.4501 44.7167C30.6448 44.7167 29.8934 44.824 29.1954 45.1465C28.4973 45.4147 27.9072 45.8439 27.4241 46.327C26.9167 46.8331 26.5153 47.4353 26.2432 48.0983C25.975 48.7963 25.8134 49.4937 25.8134 50.2454V50.299C25.8134 51.0504 25.975 51.8021 26.2432 52.4462C26.5115 53.1442 26.8873 53.7343 27.3704 54.2174C27.8536 54.7005 28.444 55.13 29.1414 55.3983C29.8394 55.6668 30.5911 55.8281 31.3961 55.8281C32.2014 55.8281 32.9528 55.7205 33.6508 55.3983C34.3486 55.13 34.939 54.7005 35.4218 54.2174C35.9292 53.7114 36.3308 53.1094 36.603 52.4465C36.8712 51.7484 37.0324 51.0504 37.0324 50.299V50.2454C37.0324 49.4937 36.8708 48.7427 36.6026 48.0983C36.3344 47.4006 35.9589 46.8102 35.4758 46.3274C34.9926 45.8439 34.4022 45.4144 33.7045 45.1462ZM34.9926 50.3527C34.9926 50.8358 34.8853 51.319 34.7241 51.8021C34.5095 52.2312 34.2949 52.6607 33.9727 52.9829C33.643 53.3105 33.2623 53.5823 32.8455 53.7879C32.4157 54.0028 31.9329 54.1101 31.3961 54.1101C30.9133 54.1101 30.3765 54.0028 29.947 53.7879C29.5303 53.5824 29.1496 53.3107 28.8199 52.9833C28.4976 52.6071 28.2294 52.2312 28.0682 51.7488C27.9072 51.2653 27.7999 50.7825 27.7999 50.2454V50.1917C27.7999 49.7086 27.9072 49.2255 28.0682 48.7424C28.2831 48.3129 28.4976 47.8837 28.8199 47.5615C29.1495 47.2338 29.5302 46.9619 29.947 46.7562C30.3765 46.5416 30.8593 46.4343 31.3961 46.4343C31.9325 46.4343 32.416 46.5416 32.8455 46.7562C33.2623 46.9619 33.643 47.2338 33.9727 47.5615C34.2949 47.9374 34.5631 48.3129 34.7241 48.796C34.8853 49.2791 34.9923 49.7623 34.9923 50.299V50.3527H34.9926ZM42.9367 48.7424C43.1512 48.3129 43.3661 47.8834 43.688 47.5615C44.0178 47.234 44.3985 46.962 44.8152 46.7562C45.2447 46.5416 45.6742 46.4343 46.211 46.4343C46.855 46.4343 47.3918 46.5416 47.8749 46.8098C48.3581 47.0784 48.7876 47.4006 49.2167 47.7761L50.4515 46.3807C50.183 46.1124 49.9148 45.8975 49.6462 45.6826C49.378 45.468 49.0558 45.3071 48.7339 45.1462C48.3581 45.0385 48.0359 44.9313 47.6064 44.824C47.1772 44.7703 46.7477 44.7167 46.2646 44.7167C45.4056 44.7167 44.7079 44.8776 44.0102 45.1458C43.3125 45.4144 42.7221 45.8439 42.2389 46.327C41.7652 46.849 41.3839 47.448 41.1117 48.0983C40.8304 48.7793 40.6846 49.5086 40.6823 50.2454V50.299C40.6823 51.0504 40.8432 51.7481 41.1117 52.4462C41.38 53.1442 41.7558 53.7343 42.2389 54.2174C42.7221 54.7005 43.3125 55.13 43.9566 55.3983C44.6359 55.6849 45.3663 55.8311 46.1037 55.8281C46.5868 55.8281 47.0696 55.8281 47.5527 55.7205C47.9286 55.6668 48.3581 55.5055 48.6799 55.3446C49.0021 55.1837 49.3243 55.0224 49.6462 54.7542C49.9684 54.486 50.2366 54.2711 50.5052 53.9488L49.2707 52.7144C48.7876 53.1442 48.3044 53.4661 47.8749 53.7343C47.4454 54.0028 46.855 54.1101 46.211 54.1101C45.7278 54.1101 45.2447 53.9488 44.8152 53.7879C44.3861 53.627 44.0102 53.3048 43.688 52.9833C43.3661 52.6071 43.0976 52.2312 42.9367 51.7481C42.7757 51.2653 42.6681 50.7822 42.6681 50.2454V50.1917C42.6681 49.7086 42.7757 49.2255 42.9367 48.7424ZM54.2626 44.9316V55.6668H56.1412V51.158H61.2944V55.6668H63.1729V44.9313H61.2944V49.3868H56.1412V44.9313H54.2626V44.9316ZM74.8744 53.0906L75.9479 55.6672H77.9338L73.2104 44.878H71.4925L66.7691 55.6668H68.7016L69.8285 53.0902H74.8744V53.0906ZM72.3514 47.1324L74.1763 51.4266H70.5265L72.3514 47.1324ZM9.81807 59.6385H78.256V59.0481H9.81807V59.6385ZM49.1634 38.8654C49.1634 39.08 49.1094 39.2413 49.1094 39.4562H78.256V38.8654H49.1631H49.1634ZM37.1934 38.8654H9.81807V39.4562H37.247C37.247 39.2416 37.193 39.0804 37.193 38.8654H37.1934Z"
          fill="white"/>
</svg>
