<svg width="101" height="39" viewBox="0 0 101 39" fill="none" xmlns="http://www.w3.org/2000/svg">
<path d="M7.82283 12.1172C7.62808 12.1172 7.57939 12.0198 7.67676 11.8737L8.69922 10.5591C8.7966 10.4131 9.04004 10.3157 9.23479 10.3157H26.6166C26.8113 10.3157 26.86 10.4618 26.7626 10.6078L25.9349 11.8737C25.8376 12.0198 25.5941 12.1659 25.448 12.1659L7.82283 12.1172ZM0.470877 16.5965C0.276123 16.5965 0.227435 16.4991 0.324811 16.3531L1.34727 15.0385C1.44465 14.8924 1.68809 14.795 1.88284 14.795H24.0848C24.2795 14.795 24.3769 14.9411 24.3282 15.0872L23.9387 16.2557C23.89 16.4504 23.6953 16.5478 23.5005 16.5478L0.470877 16.5965ZM12.2535 21.0758C12.0587 21.0758 12.01 20.9298 12.1074 20.7837L12.7891 19.5665C12.8864 19.4204 13.0812 19.2744 13.2759 19.2744H23.0136C23.2084 19.2744 23.3058 19.4204 23.3058 19.6152L23.2084 20.7837C23.2084 20.9785 23.0136 21.1245 22.8676 21.1245L12.2535 21.0758ZM62.7921 11.2408C59.7247 12.0198 57.6311 12.6041 54.6124 13.3831C53.8821 13.5778 53.8334 13.6265 53.2004 12.8962C52.4701 12.0685 51.9346 11.5329 50.9121 11.046C47.8447 9.53669 44.8747 9.97488 42.0995 11.7764C38.7887 13.9186 37.0846 17.0834 37.1333 21.0272C37.182 24.9222 39.8598 28.1357 43.7062 28.6712C47.017 29.1094 49.7923 27.9409 51.9832 25.4578C52.4214 24.9222 52.8109 24.338 53.2978 23.6563H43.901C42.8785 23.6563 42.6351 23.0234 42.9759 22.1957C43.6088 20.6863 44.7774 18.1545 45.459 16.8886C45.6051 16.5965 45.9459 16.1096 46.6762 16.1096H64.3988C64.3014 17.4242 64.3014 18.7388 64.1067 20.0534C63.5711 23.559 62.2565 26.7724 60.1142 29.5963C56.6086 34.2217 52.0319 37.0943 46.238 37.8733C41.4665 38.5063 37.0359 37.5812 33.1408 34.6599C29.5379 31.9334 27.493 28.3304 26.9574 23.8511C26.3244 18.544 27.8825 13.7726 31.0959 9.58538C34.5528 5.05735 39.1295 2.18474 44.7287 1.16228C49.3054 0.334577 53.6873 0.87015 57.6311 3.54801C60.2116 5.25211 62.0617 7.58915 63.279 10.4131C63.5711 10.8513 63.3763 11.0947 62.7921 11.2408Z" fill="#00ACD7"/>
<path d="M78.9079 38.1655C74.4773 38.0681 70.4361 36.8022 67.028 33.8809C64.1553 31.3978 62.3539 28.233 61.7696 24.484C60.8932 18.9822 62.4026 14.1134 65.7134 9.78012C69.2676 5.10603 73.5522 2.67161 79.3461 1.64915C84.3123 0.772763 88.9864 1.25965 93.2223 4.13226C97.0687 6.76144 99.4544 10.3157 100.087 14.9898C100.915 21.5627 99.0162 26.9184 94.4882 31.4952C91.2748 34.7573 87.331 36.8022 82.803 37.7273C81.4884 37.9707 80.1738 38.0194 78.9079 38.1655ZM90.4958 18.4953C90.4471 17.8624 90.4471 17.3755 90.3497 16.8886C89.4733 12.0685 85.0427 9.34192 80.4173 10.4131C75.8892 11.4355 72.9679 14.3081 71.8968 18.8849C71.0204 22.6825 72.8706 26.5289 76.3761 28.087C79.054 29.2555 81.7319 29.1094 84.3123 27.7948C88.1587 25.7986 90.2523 22.6826 90.4958 18.4953Z" fill="#00ACD7"/>
</svg>
