<svg width="101" height="39" viewBox="0 0 101 39" fill="none" xmlns="http://www.w3.org/2000/svg">
<path d="M74.0823 31.5667L76.9711 24.2614H85.3126L81.3537 13.1797L86.3046 0.659729L100.485 38.31H90.0274L87.604 31.5667H74.0823Z" fill="white"/>
<path d="M65.1611 38.3104L80.3411 0.660309H70.2773L59.8927 24.9903L52.5087 0.660309H44.7728L36.8444 24.9903L31.2525 13.9037L26.1927 29.4929L31.3303 38.3104H41.2344L48.3991 16.4913L55.2303 38.3104H65.1611Z" fill="#5A0FC8"/>
<path d="M10.0378 25.3856H16.2367C18.1147 25.3856 19.7868 25.1759 21.253 24.7564L22.8566 19.8179L27.3367 6.01401C26.9956 5.47287 26.6057 4.9613 26.1676 4.47916C23.8668 1.93287 20.5011 0.659729 16.0698 0.659729H0.484985V38.31H10.0378V25.3856ZM18.2434 9.32173C19.1417 10.2259 19.5911 11.4363 19.5911 12.9524C19.5911 14.4803 19.1958 15.6917 18.406 16.5873C17.5393 17.5826 15.9444 18.0797 13.6201 18.0797H10.0378V7.96501H13.6464C15.8124 7.96501 17.3446 8.41701 18.2434 9.32173Z" fill="white"/>
</svg>
